<svg width="428" height="386" viewBox="0 0 428 386" fill="none" xmlns="http://www.w3.org/2000/svg">
<path d="M156.698 85.0938C156.621 85.0938 156.57 85.0682 156.519 84.9915C156.442 84.8893 156.468 84.7359 156.57 84.6592C156.596 84.6336 159.587 82.3837 163.703 84.3779C163.806 84.4291 163.857 84.5825 163.806 84.6847C163.754 84.787 163.601 84.8381 163.499 84.787C159.638 82.9206 156.979 84.9148 156.851 85.0171C156.775 85.0938 156.749 85.0938 156.698 85.0938Z" fill="#3797DB"/>
<path d="M221.791 324.295C137.165 280.065 108.3 234.25 99.1219 203.109H153.477C153.17 207.993 151.712 212.774 149.258 217.018C148.056 219.012 147.417 221.313 147.417 223.665C147.417 230.773 153.195 236.551 160.303 236.551C167.41 236.551 173.188 230.773 173.188 223.665C173.188 221.313 172.549 219.012 171.322 216.992C168.868 212.774 167.436 207.993 167.129 203.109H221.791V253.757L222.788 253.655C227.645 253.22 232.426 251.712 236.645 249.257C238.383 248.209 240.352 247.647 242.372 247.647C248.457 247.647 253.417 252.607 253.417 258.691C253.417 264.776 248.457 269.736 242.372 269.736C240.352 269.736 238.383 269.174 236.645 268.151C232.426 265.697 227.62 264.188 222.788 263.754L221.791 263.677V324.295Z" fill="#3B77BE"/>
<path d="M223.631 265.722C227.901 266.233 231.966 267.588 235.724 269.761C237.718 270.963 240.019 271.602 242.371 271.602C249.479 271.602 255.257 265.824 255.257 258.716C255.257 251.609 249.479 245.831 242.371 245.831C240.019 245.831 237.718 246.47 235.698 247.697C231.966 249.87 227.901 251.225 223.631 251.737V203.109H288.008L288.033 202.214C288.238 195.925 286.678 189.712 283.534 184.266C282.485 182.528 281.923 180.559 281.923 178.539C281.923 172.455 286.883 167.495 292.968 167.495C299.053 167.495 304.013 172.455 304.013 178.539C304.013 180.559 303.45 182.528 302.427 184.266C299.257 189.738 297.698 195.925 297.902 202.214L297.928 203.109H346.3C337.121 234.224 308.257 280.065 223.631 324.295V265.722Z" fill="#62BDF3"/>
<path d="M223.401 324.679V265.467L223.657 265.492C227.952 266.003 232.069 267.384 235.827 269.557C237.795 270.759 240.045 271.372 242.372 271.372C249.352 271.372 255.027 265.697 255.027 258.717C255.027 251.737 249.352 246.061 242.372 246.061C240.045 246.061 237.795 246.701 235.827 247.877C232.069 250.05 227.978 251.43 223.657 251.942L223.401 251.967V202.879H287.778L287.804 202.215C288.008 195.976 286.474 189.815 283.33 184.395C282.256 182.631 281.693 180.611 281.693 178.54C281.693 172.327 286.756 167.265 292.968 167.265C299.181 167.265 304.243 172.327 304.243 178.54C304.243 180.611 303.681 182.631 302.607 184.369C299.462 189.789 297.928 195.951 298.133 202.189L298.158 202.854H346.607L346.53 203.161C337.429 233.994 308.743 280.065 223.734 324.474L223.401 324.679ZM223.862 265.978V323.912C308.18 279.758 336.841 234.045 345.994 203.34H297.724L297.698 202.215C297.494 195.874 299.053 189.636 302.249 184.139C303.272 182.452 303.809 180.509 303.809 178.54C303.809 172.583 298.951 167.725 292.994 167.725C287.037 167.725 282.179 172.583 282.179 178.54C282.179 180.509 282.716 182.452 283.739 184.165C286.909 189.661 288.494 195.9 288.29 202.24L288.264 203.365H223.862V251.482C228.003 250.945 231.966 249.615 235.597 247.519C237.642 246.292 239.994 245.627 242.372 245.627C249.607 245.627 255.488 251.507 255.488 258.743C255.488 265.978 249.607 271.858 242.372 271.858C239.969 271.858 237.616 271.219 235.597 269.966C231.966 267.844 228.003 266.515 223.862 265.978Z" fill="#96D9C9"/>
<path d="M160.303 234.735C154.218 234.735 149.258 229.776 149.258 223.691C149.258 221.671 149.821 219.702 150.843 217.964C153.63 213.183 155.19 207.737 155.369 202.215L155.394 201.269H98.5851C96.2074 192.602 94.9802 183.883 94.9802 175.344C94.9802 155.53 101.244 136.969 112.647 123.137C124.382 108.896 140.617 101.047 158.385 101.047C180.143 101.047 196.25 110.124 205.939 117.742C215.501 125.259 220.87 132.903 221.791 134.258V157.678C217.905 157.064 214.197 155.76 210.772 153.791C208.777 152.59 206.476 151.951 204.124 151.951C197.017 151.951 191.239 157.729 191.239 164.836C191.239 171.944 197.017 177.722 204.124 177.722C206.476 177.722 208.777 177.083 210.797 175.855C214.197 173.887 217.905 172.583 221.791 171.969V201.269H165.212L165.237 202.215C165.416 207.737 166.976 213.157 169.737 217.938C170.785 219.677 171.348 221.645 171.348 223.665C171.348 229.776 166.388 234.735 160.303 234.735Z" fill="#F2E205"/>
<path d="M158.692 96.1642C156.085 96.5733 156.238 97.0079 155.906 97.059C155.522 97.1102 150.818 94.758 150.818 94.758C150.818 94.758 136.935 87.9317 136.219 87.5227L126.197 74.9695L118.476 78.4976C118.476 78.4976 129.751 91.8434 130.441 92.4315C131.157 93.0195 151.048 99.9736 152.786 100.638C152.786 100.638 154.525 102.224 155.65 103.195C156.775 104.167 158.283 104.525 158.641 104.755C158.692 104.78 159.945 105.445 161.709 105.828C163.218 106.161 161.965 105.138 161.965 105.138C161.965 105.138 159.28 104.013 159.408 103.809C159.51 103.655 160.942 104.346 162.604 104.729C163.039 104.831 163.448 104.934 163.857 105.01C164.879 105.24 165.34 104.652 164.291 104.243C163.933 104.09 163.32 103.885 162.86 103.783C162.374 103.681 161.939 103.425 161.53 103.272C160.738 102.965 160.15 102.76 160.175 102.735C160.226 102.709 160.098 102.53 160.559 102.607C161.121 102.709 162.22 103.221 163.064 103.297C163.524 103.348 164.496 103.527 164.496 103.527C164.496 103.527 166.209 103.681 166.234 103.451C166.26 102.914 165.212 102.633 164.547 102.633C164.138 102.428 163.115 102.275 163.115 102.275C163.115 102.275 161.121 101.482 161.223 101.201C161.275 101.073 162.476 101.252 163.754 101.354C165.11 101.457 166.081 101.457 166.158 101.175C166.26 100.766 165.186 100.613 165.186 100.613C165.186 100.613 164.24 100.485 163.933 100.408C163.576 100.332 162.502 99.9992 162.502 99.9992C162.502 99.9992 158.82 98.6442 158.974 98.3885C159.101 98.1073 159.715 97.5448 159.971 97.5448C160.226 97.5448 160.686 97.8005 160.942 97.8005C161.198 97.8005 161.76 97.7493 161.786 97.417C161.837 97.0846 160.38 96.4199 160.38 96.4199C160.38 96.4199 159.434 96.0364 158.692 96.1642Z" fill="#EFAC7F"/>
<path d="M133.177 82.7417C133.177 82.7417 130.671 85.0171 129.649 85.7586C128.779 86.3722 124.586 88.3919 124.586 88.3919C124.586 88.3919 120.393 82.0003 118.578 78.7789C116.354 74.8927 114.82 69.1147 115.331 68.9357C116.814 68.5011 118.834 68.2198 120.7 69.0891C127.169 72.0548 133.177 82.7417 133.177 82.7417Z" fill="#3B77BE"/>
<path d="M156.263 99.4879C157.363 99.6669 158.513 99.4623 158.999 98.4397C159.127 99.6413 157.286 100.255 156.263 99.4879Z" fill="#FE875E"/>
<path d="M92.2701 180.253L91.9889 185.162C91.8866 185.775 91.4775 187.309 91.4775 187.872C91.4775 189.994 100.912 186.082 98.8152 185.136C98.6362 185.059 97.6135 184.395 97.5624 183.679C97.4601 182.554 97.23 180.304 97.23 180.304L92.2701 180.253Z" fill="#EFAC7F"/>
<path d="M98.7896 185.136C98.7896 185.136 96.5653 185.775 95.4403 185.954C94.3154 186.108 92.807 184.753 92.0144 185.111C91.1196 185.52 91.1707 189.176 91.1707 189.176C91.1707 189.176 103.059 190.224 106.408 189.15C107.712 188.715 103.34 186.645 98.7896 185.136Z" fill="#45258F"/>
<path d="M77.0835 179.972C77.0835 179.972 76.8023 184.855 76.8023 184.88C76.7 185.494 76.291 187.028 76.291 187.591C76.291 189.713 85.7251 185.801 83.6286 184.855C83.4496 184.778 82.1457 183.653 82.069 182.912C81.9668 181.787 82.0179 180.023 82.0179 180.023L77.0835 179.972Z" fill="#EFAC7F"/>
<path d="M83.6286 184.829C83.6286 184.829 81.4043 185.468 80.2794 185.647C79.1544 185.801 77.646 184.446 76.8534 184.804C75.9586 185.213 75.933 188.869 75.933 188.869C75.933 188.869 87.7448 189.355 91.2475 188.843C92.6025 188.639 88.1539 186.338 83.6286 184.829Z" fill="#45258F"/>
<path d="M79.2311 102.735C79.2311 102.735 77.6204 110.993 78.2852 117.257C78.9499 123.521 79.001 145.763 79.001 145.763L76.5211 181.352L82.427 181.48C82.427 181.48 89.4322 145.891 89.3044 146.812C89.1766 147.732 91.6565 121.756 91.6565 121.756L83.2962 101.917L79.2311 102.735Z" fill="#2D185D"/>
<path d="M81.481 97.417C81.481 97.417 74.22 105.036 76.9301 113.345C78.0039 116.694 88.1283 148.601 88.2561 151.209C88.3839 153.817 91.682 182.656 91.682 182.656L98.5595 182.452L100.042 150.391L98.0737 107.183L93.9063 99.8969L81.481 97.417Z" fill="#45258F"/>
<path d="M125.507 72.694C123.129 70.0606 117.965 66.2001 117.965 66.2001C117.965 66.2001 114.897 63.5667 113.618 63.1576C111.777 62.5185 108.607 60.8311 104.031 67.7341C100.758 72.694 80.1004 98.3118 76.7 99.1811L98.8663 109.74C99.4799 104.703 110.422 95.1671 112.008 93.3774C115.51 89.4146 127.757 75.1995 125.507 72.694Z" fill="#3797DB"/>
<path d="M124.458 61.8793L117.555 65.9189C117.555 65.9189 117.351 71.7992 119.626 73.3076C121.518 74.586 122.95 71.518 122.95 71.518C122.95 71.518 125.507 67.9642 127.475 66.8648C129.418 65.7655 124.458 61.8793 124.458 61.8793Z" fill="#EFAC7F"/>
<path d="M123.308 64.4616C123.564 65.6888 124.177 67.4529 125.098 68.9102C125.865 68.092 126.708 67.2739 127.475 66.8648C128.37 66.3535 127.808 65.2541 126.913 64.2059C125.686 62.9276 124.459 61.8793 124.459 61.8793L123.129 62.6463C123.052 63.1577 123.231 64.0525 123.308 64.4616Z" fill="#D19369"/>
<path d="M128.063 51.7805C127.936 51.6271 122.285 58.6835 122.976 61.9816C123.666 65.2797 127.117 68.2966 129.495 67.4784C132.129 66.558 137.037 58.2744 135.273 54.2349C133.509 50.2209 128.063 51.7805 128.063 51.7805Z" fill="#EFAC7F"/>
<path d="M134.276 49.5562C131.796 48.1756 127.757 47.7921 124.765 49.3517C121.058 51.2947 120.214 56.1524 121.365 59.1181C122.515 62.0839 121.186 63.7713 121.186 63.7713L123.155 62.6208C123.155 62.6208 124.305 60.8311 124.458 59.3994C124.612 57.9676 126.683 58.2233 127.705 57.5841C128.498 57.0984 129.495 55.4621 130.748 54.644C130.748 54.644 133.944 54.2605 135.503 55.1297C138.188 56.6382 137.804 51.5248 134.276 49.5562Z" fill="#5E2E0D"/>
<path d="M145.219 106.519C142.509 106.186 142.509 106.416 142.176 106.365C141.767 106.314 137.549 102.684 137.549 102.684C137.549 102.684 125.072 92.0991 124.407 91.511L117.556 76.3756L108.505 77.7306C108.505 77.7306 116.942 95.525 117.53 96.292C118.118 97.059 136.654 107.874 138.239 108.999C138.239 108.999 139.645 111.044 140.566 112.297C141.486 113.549 142.918 114.342 143.25 114.674C143.301 114.726 144.401 115.723 146.088 116.592C147.545 117.333 146.497 115.978 146.497 115.978C146.497 115.978 144.043 114.112 144.222 113.959C144.349 113.831 145.628 114.93 147.238 115.774C147.647 116.004 148.057 116.208 148.44 116.387C149.437 116.899 150 116.439 149.054 115.774C148.721 115.518 148.159 115.135 147.699 114.905C147.213 114.674 146.855 114.291 146.471 114.035C145.73 113.524 145.219 113.166 145.27 113.166C145.321 113.14 145.193 112.91 145.653 113.115C146.19 113.371 147.213 114.189 148.005 114.495C148.466 114.674 149.412 115.135 149.412 115.135C149.412 115.135 150.792 115.314 150.843 115.237C151.125 114.802 150.306 114.47 149.642 114.291C149.284 113.984 148.261 113.524 148.261 113.524C148.261 113.524 146.42 112.194 146.599 111.939C146.676 111.837 147.75 112.578 149.079 113.064C150.588 113.626 151.329 113.319 151.457 113.089C151.661 112.706 150.741 112.501 150.741 112.501C150.741 112.501 149.463 112.194 149.181 112.041C148.824 111.862 144.758 108.794 144.963 108.564C145.168 108.334 145.781 108.334 146.037 108.411C146.292 108.487 146.753 108.666 147.008 108.743C147.264 108.82 147.724 108.513 147.826 108.206C147.929 107.899 146.957 107.337 146.957 107.337C146.957 107.337 146.011 106.621 145.219 106.519Z" fill="#EFAC7F"/>
<path d="M109.962 85.0683C109.962 85.0683 112.57 84.2501 114.232 83.4831C115.357 82.9718 120.215 80.543 120.215 80.543C120.215 80.543 118.118 71.6969 116.686 68.5267C111.471 56.8683 105.539 64.8962 104.747 66.7881C102.957 70.9811 109.962 85.0683 109.962 85.0683Z" fill="#62BDF3"/>
<path d="M299.718 201.269C299.692 195.618 301.15 190.096 303.987 185.213C305.189 183.219 305.828 180.918 305.828 178.566C305.828 171.458 300.05 165.68 292.943 165.68C285.835 165.68 280.057 171.458 280.057 178.566C280.057 180.918 280.696 183.219 281.923 185.238C284.761 190.122 286.219 195.644 286.193 201.294H223.631V169.873L222.609 170.001C218.084 170.563 213.788 171.995 209.851 174.27C208.113 175.319 206.144 175.881 204.124 175.881C198.039 175.881 193.079 170.921 193.079 164.836C193.079 158.751 198.039 153.791 204.124 153.791C206.144 153.791 208.113 154.354 209.851 155.377C213.814 157.678 218.109 159.109 222.609 159.672L223.631 159.8V134.284C224.552 132.903 229.921 125.285 239.483 117.768C249.147 110.149 265.254 101.073 287.037 101.073C304.78 101.073 321.04 108.922 332.776 123.163C344.178 136.994 350.442 155.53 350.442 175.37C350.442 183.909 349.24 192.627 346.837 201.294H299.718V201.269Z" fill="#7772D6"/>
<path d="M347.221 242.15H328.48C327.56 242.15 326.793 241.408 326.793 240.462C326.793 239.542 327.534 238.775 328.48 238.775H347.221C348.141 238.775 348.908 239.516 348.908 240.462C348.908 241.383 348.141 242.15 347.221 242.15Z" fill="#7772D6"/>
<path d="M349.062 244.783H326.64C325.719 244.783 324.952 244.042 324.952 243.096C324.952 242.175 325.694 241.408 326.64 241.408H349.062C349.982 241.408 350.749 242.15 350.749 243.096C350.749 244.042 349.982 244.783 349.062 244.783Z" fill="#45258F"/>
<path d="M283.279 356.714C283.279 356.714 281.54 358.427 281.514 359.041C281.463 359.68 281.361 366.378 282.077 367.017C282.793 367.656 284.864 368.091 284.199 368.781C283.688 369.318 279.827 369.19 277.27 369.063C276.529 369.012 275.583 362.952 275.276 362.083C274.842 360.779 273.282 357.967 273.691 357.072C273.87 356.637 275.302 355.64 276.58 354.796C277.935 353.902 279.239 351.933 279.239 351.933L283.279 356.714Z" fill="#EFAC7F"/>
<path d="M306.391 360.907C306.391 360.907 304.857 365.33 304.831 365.355C304.729 366.046 304.269 367.784 304.269 368.423C304.269 370.827 314.93 366.404 312.527 365.33C312.322 365.228 311.632 364.461 311.555 363.642C311.453 362.39 312.45 360.805 312.45 360.805L306.391 360.907Z" fill="#EFAC7F"/>
<path d="M321.092 276.895L324.952 286.891C324.952 286.891 327.458 310.72 326 324.986C325.387 330.943 312.118 362.901 312.118 362.901L305.522 361.955L314.342 324.116L311.095 309.646L306.493 281.062L321.092 276.895Z" fill="#2D185D"/>
<path d="M302.914 277.406L299.616 288.528L294.579 322.097L277.552 353.493C277.552 353.493 280.108 357.43 282.869 358.043L307.03 326.315L320.12 286.585L319.66 277.764L302.914 277.406Z" fill="#45258F"/>
<path d="M353.715 258.896C351.746 259.791 351.925 260.174 351.669 260.276C351.363 260.404 347.195 259.075 347.195 259.075C347.195 259.075 334.872 255.265 334.233 255.035L323.878 245.039L318.433 249.896C318.433 249.896 329.912 260.404 330.602 260.813C331.293 261.222 348.397 264.009 349.88 264.316C349.88 264.316 351.567 265.492 352.641 266.182C353.715 266.873 354.993 266.949 355.325 267.077C355.377 267.103 356.476 267.486 357.959 267.512C359.237 267.537 358.035 266.796 358.035 266.796C358.035 266.796 355.683 266.234 355.76 266.029C355.811 265.85 357.064 266.259 358.47 266.285C358.828 266.285 359.186 266.31 359.518 266.31C360.388 266.31 360.618 265.671 359.723 265.492C359.416 265.415 358.879 265.339 358.496 265.339C358.087 265.339 357.703 265.16 357.345 265.109C356.655 264.981 356.143 264.878 356.169 264.853C356.195 264.802 356.067 264.674 356.45 264.674C356.91 264.674 357.882 264.93 358.572 264.853C358.956 264.802 359.748 264.802 359.748 264.802C359.748 264.802 361.052 264.597 361.052 264.495C361.103 263.984 360.132 263.805 359.621 263.958C359.263 263.83 358.419 263.881 358.419 263.881C358.419 263.881 356.68 263.523 356.732 263.217C356.757 262.961 361.052 262.859 361.052 262.347C361.052 261.938 359.774 261.887 359.774 261.887C359.774 261.887 358.981 261.938 358.726 261.938C358.419 261.938 357.499 261.81 357.499 261.81C357.499 261.81 354.328 261.248 354.379 260.967C354.431 260.686 354.814 260.021 355.019 259.995C355.223 259.944 355.632 260.098 355.837 260.046C356.041 259.995 356.271 259.714 356.246 259.407C356.22 259.1 355.146 258.845 355.146 258.845C355.146 258.845 354.277 258.64 353.715 258.896Z" fill="#F8A492"/>
<path d="M327.611 247.57L322.421 254.601C322.421 254.601 317.845 249.104 315.774 246.368C313.268 243.019 310.533 238.391 310.942 238.161C312.092 237.445 313.498 236.704 315.16 237.139C320.964 238.622 327.611 247.57 327.611 247.57Z" fill="#3B77BE"/>
<path d="M276.657 354.745C276.657 354.745 280.287 365.892 281.847 366.429C282.256 366.583 284.582 367.171 284.966 368.066C284.966 368.091 284.991 368.117 284.991 368.142C285.119 368.705 284.634 369.216 284.071 369.216H276.682C276.682 369.216 275.634 364.205 275.225 362.006C275.225 362.006 273.026 356.637 273.282 356.151C273.487 355.666 276.657 354.745 276.657 354.745Z" fill="#45258F"/>
<path d="M303.681 369.19L304.857 365.279C304.857 365.279 307.439 366.378 308.743 366.199C310.021 366.02 312.527 365.279 312.527 365.279C317.64 366.992 321.833 367.81 321.066 369.19H303.681Z" fill="#45258F"/>
<path d="M352.13 262.296C353.076 262.271 353.843 261.862 354.379 260.941C354.2 262.22 352.973 262.756 352.13 262.296Z" fill="#FE875E"/>
<path d="M304.243 236.909C304.243 236.909 298.056 237.573 295.985 238.289C294.247 238.903 291.92 244.527 291.92 244.527C291.92 244.527 301.277 271.603 300.92 276.435C300.562 281.267 299.513 288.451 299.513 288.451C299.513 288.451 317.947 289.627 324.952 286.866C324.952 286.866 322.753 275.898 322.753 273.009C322.753 270.12 321.526 241.332 320.631 239.823C319.737 238.315 317.973 237.445 314.598 236.73C311.223 236.014 304.243 236.909 304.243 236.909Z" fill="#3797DB"/>
<path d="M305.47 228.855L304.243 236.909C304.243 236.909 307.95 241.178 310.635 240.335C312.885 239.644 312.297 236.474 312.297 236.474C312.297 236.474 311.07 231.923 311.427 229.622C311.785 227.372 305.47 228.855 305.47 228.855Z" fill="#EFAC7F"/>
<path d="M311.427 229.648C311.785 227.372 305.47 228.855 305.47 228.855L305.368 229.52C305.547 229.954 305.777 230.338 306.058 230.645C307.465 232.153 309.689 233.048 311.581 233.125C311.402 231.898 311.274 230.594 311.427 229.648Z" fill="#D19369"/>
<path d="M304.448 217.452C304.269 217.376 303.016 226.631 305.394 229.162C307.771 231.693 312.399 232.537 314.061 230.542C315.902 228.318 315.799 218.398 312.118 215.79C308.411 213.183 304.448 217.452 304.448 217.452Z" fill="#EFAC7F"/>
<path d="M310.686 210.856C307.823 211.444 305.982 213.183 305.291 213.899C303.988 214.052 302.223 214.768 300.408 217.759C298.158 221.441 299.82 225.531 302.428 227.526C305.036 229.52 305.01 231.846 305.01 231.846L305.419 230.645C305.726 229.75 305.854 228.778 305.752 227.832C305.7 227.27 305.573 226.656 305.343 226.145C304.703 224.816 306.698 223.921 307.234 222.796C307.669 221.927 307.669 219.983 308.359 218.552L309.152 217.478C309.152 217.478 310.993 216.046 312.808 216.455C314.623 216.864 314.368 210.115 310.686 210.856Z" fill="#282828"/>
<path d="M307.107 224.432C307.132 225.557 306.621 226.477 305.956 226.503C305.291 226.503 304.755 225.608 304.729 224.483C304.703 223.358 305.215 222.438 305.88 222.412C306.544 222.412 307.107 223.307 307.107 224.432Z" fill="#EFAC7F"/>
<path d="M315.482 276.023H352.707V243.732H315.482V276.023Z" fill="#CEC004"/>
<path d="M338.649 276.023H370.94V243.732H338.649V276.023Z" fill="#F2E205"/>
<path d="M338.017 275.335C336.125 274.773 314.342 269.199 313.524 268.662C312.706 268.125 299.258 255.572 299.258 255.572L306.953 251.507L318.995 263.37C319.813 263.702 335.23 269.583 335.23 269.583C335.23 269.583 339.934 271.5 340.343 271.424C340.701 271.347 340.982 271.04 343.667 270.452C344.434 270.273 345.533 270.605 345.533 270.605C345.533 270.605 346.888 271.014 346.888 271.347C346.888 271.679 346.556 271.909 346.275 271.935C345.994 271.96 345.482 271.73 345.201 271.73C344.92 271.756 344.357 272.344 344.255 272.625C344.178 272.804 348.013 275.591 348.192 275.949C348.269 276.026 352.845 275.719 352.666 276.026C352.666 276.486 352.13 276.358 352.13 276.435C352.053 277.687 345.584 278.608 345.15 278.48C344.408 278.275 338.017 275.335 338.017 275.335Z" fill="#EFAC7F"/>
<path d="M303.4 261.35L312.22 255.572C312.22 255.572 301.993 240.079 298.516 238.468C296.113 237.369 293.122 239.031 291.946 243.096C290.667 247.544 303.4 261.35 303.4 261.35Z" fill="#3B77BE"/>
<path d="M367.7 251.021L366.191 252.453V244.067C366.191 243.198 365.475 242.482 364.606 242.482H351.542C350.672 242.482 349.956 243.198 349.956 244.067V253.808L348.346 251.021L342.823 252.632C342.823 252.632 347.246 261.069 349.956 262.45C353.561 264.29 362.561 264.239 366.191 262.45C368.416 261.35 372.174 254.601 372.174 254.601L367.7 251.021Z" fill="#7772D6"/>
<path d="M362.74 263.472C362.484 260.583 360.541 258.308 358.163 258.308C355.786 258.308 353.843 260.583 353.587 263.498C356.399 263.932 359.902 263.932 362.74 263.472Z" fill="#45258F"/>
<path d="M284.813 28.1569C283.483 30.4323 281.105 30.33 278.549 30.9692C276.836 31.4038 275.788 34.2162 275.941 36.3638C276.35 41.7839 272.131 40.8635 268.706 43.0878C260.55 48.4568 265.817 62.4418 274.739 63.3366C276.529 63.5156 278.574 63.2343 280.159 62.3395C281.438 61.6236 282.333 60.7032 283.764 60.1919C286.781 59.1181 290.13 58.7602 292.534 56.4336C295.985 53.1355 293.122 51.4992 294.017 49.096C294.911 46.6927 298.721 47.8943 299.462 42.9088C300.255 37.5143 299.386 32.8611 297.391 30.1766C294.093 25.728 288.315 25.4468 286.193 26.7763C285.528 27.1853 285.094 27.6711 284.813 28.1569Z" fill="#5E2E0D"/>
<path d="M322.293 38.2813C321.986 37.6166 319.149 39.5852 318.535 39.2273C317.921 38.8438 321.066 35.6735 320.734 35.111C320.146 34.0884 317.052 38.3836 316.771 37.9234C316.464 37.4632 319.43 32.8867 318.382 32.6311C317.333 32.3754 315.799 37.7188 315.262 37.3609C314.725 37.0285 317.129 32.5288 316.106 31.6084C315.569 31.1226 312.987 39.7897 312.041 40.1477C311.095 40.5056 310.047 36.7217 309.178 36.8751C308.308 37.0285 312.067 43.8548 311.888 44.3662C311.709 44.9031 308.257 56.0245 306.212 59.3993C304.985 58.8113 303.783 58.2233 302.658 57.6608C302.198 60.243 302.147 62.9531 301.559 65.4842C305.496 67.2227 309.024 68.4755 310.175 68.0664C313.677 66.7881 315.39 49.8374 315.953 46.6672C316.515 43.4969 317.998 42.8833 318.867 41.2215C319.685 39.5852 322.626 38.9716 322.293 38.2813Z" fill="#EFAC7F"/>
<path d="M293.122 52.5475L287.292 58.4278C287.292 58.4278 295.014 62.6207 301.559 65.4842C302.147 62.9531 302.198 60.243 302.658 57.6608C297.238 54.9507 293.122 52.5475 293.122 52.5475Z" fill="#7772D6"/>
<path d="M329.554 117.998C332.111 121.015 333.977 124.16 334.182 124.569C334.284 124.748 334.309 125.821 334.412 126.026C338.4 128.659 342.619 127.918 346.096 126.844C343.82 125.847 340.624 124.722 340.343 124.236C339.857 123.469 337.684 120.708 335.46 115.748C333.645 117.512 331.957 117.308 329.554 117.998Z" fill="#EFAC7F"/>
<path d="M334.207 124.697C333.849 126.282 334.003 129.529 334.31 129.58C334.693 129.656 348.064 131.651 349.777 129.912C350.8 128.889 348.857 128.071 346.07 126.793C342.619 127.918 334.335 125.77 334.207 124.697Z" fill="#3797DB"/>
<path d="M330.679 130.066C333.236 133.082 335.102 136.227 335.307 136.636C335.409 136.815 335.434 137.889 335.537 138.093C339.525 140.727 343.744 139.985 347.221 138.912C344.945 137.914 341.749 136.79 341.468 136.304C340.982 135.537 338.809 132.776 336.585 127.816C334.795 129.58 333.108 129.375 330.679 130.066Z" fill="#EFAC7F"/>
<path d="M335.358 136.764C335 138.349 335.153 141.596 335.46 141.647C335.843 141.724 349.215 143.718 350.928 141.98C351.95 140.957 350.007 140.139 347.221 138.886C343.744 139.985 335.486 137.863 335.358 136.764Z" fill="#3797DB"/>
<path d="M337.224 117.845L330.27 120.248L292.789 89.1589C292.789 89.1589 301.942 89.0311 318.33 90.7185C323.239 91.2298 337.224 117.845 337.224 117.845Z" fill="#CEC004"/>
<path d="M278.728 86.6023C278.728 86.6023 277.731 89.2356 277.603 90.6674C277.194 95.2949 279.597 101.201 282.179 102.096C284.838 103.016 301.098 107.567 310.89 106.186L332.111 134.489L339.193 131.369L322.6 102.249C322.6 102.249 319.404 97.238 316.771 96.0619C314.137 94.8859 292.789 89.1845 292.789 89.1845L289.491 84.378L278.728 86.6023Z" fill="#F2E205"/>
<path d="M295.985 57.2517C294.809 55.0786 293.607 53.3656 293.607 53.3656C292.38 51.1924 289.235 50.0931 289.235 50.0931C289.235 50.0931 288.187 50.1186 286.986 50.1698C286.909 50.3743 286.832 50.5021 286.756 50.5788C286.295 50.9112 283.688 50.4766 282.026 51.6271C276.401 56.4592 277.961 79.9549 278.395 87.3693L292.073 87.8806C292.073 87.8806 293.377 71.5946 296.854 67.4784C299.309 64.6149 297.724 60.4731 295.985 57.2517Z" fill="#7772D6"/>
<path d="M288.264 42.1418C288.264 42.1418 287.318 48.8914 286.653 50.5533C285.989 52.1895 290.284 55.7177 293.837 56.766C297.391 57.8398 292.738 53.1355 292.892 51.3714C293.045 49.6073 293.684 41.2981 293.684 41.2981L288.264 42.1418Z" fill="#EFAC7F"/>
<path d="M293.505 43.7014C293.607 42.3208 293.684 41.3237 293.684 41.3237L288.238 42.1418C288.238 42.1418 288.111 42.9344 287.957 44.0593C290.181 45.3377 292.15 44.9286 293.505 43.7014Z" fill="#D19369"/>
<path d="M289.977 29.7931C289.977 29.7931 287.829 30.2789 286.5 32.2987C285.17 34.3184 284.276 40.2755 288.622 43.0622C292.968 45.849 296.369 41.9117 296.42 38.0767C296.496 34.2417 295.653 29.1284 289.977 29.7931Z" fill="#EFAC7F"/>
<path d="M297.417 36.8751C297.033 37.7955 296.318 38.3836 295.781 38.1535C295.244 37.9234 295.116 37.003 295.474 36.0826C295.857 35.1622 296.573 34.5741 297.11 34.8042C297.673 35.0343 297.8 35.9547 297.417 36.8751Z" fill="#EFAC7F"/>
<path d="M286.423 37.6421C286.73 38.6392 286.449 39.6107 285.784 39.8408C285.119 40.0454 284.301 39.4318 283.994 38.4091C283.688 37.412 283.969 36.4405 284.633 36.2104C285.324 36.0058 286.116 36.645 286.423 37.6421Z" fill="#EFAC7F"/>
<path d="M304.473 59.8084C304.473 59.8084 305.931 59.8595 306.365 59.8084C308.769 59.5783 307.771 63.1321 307.771 63.1321C307.771 63.1321 306.595 61.9816 306.135 61.9816C305.675 61.9816 305.01 62.1094 305.01 62.1094L304.473 59.8084Z" fill="#45258F"/>
<path d="M312.603 83.5342C312.603 83.5342 313.601 85.0682 314.7 84.3779C315.799 83.6876 317.717 82.3582 318.075 83.3553C318.433 84.3524 318.356 85.1961 317.972 85.4006C317.589 85.6051 314.726 87.1647 313.166 87.267C311.606 87.3692 310.328 85.9119 310.328 85.9119L312.603 83.5342Z" fill="#3B77BE"/>
<path d="M314.93 87.0113C314.879 85.7841 314.649 84.4547 313.984 83.3042C312.297 80.364 305.112 72.4383 304.039 71.8247C302.965 71.2111 303.732 68.8334 303.732 68.8334L299.488 66.5324L297.264 65.3308C297.264 65.3308 292.252 73.0008 291.869 73.7167C291.485 74.4325 292.176 76.8102 291.664 78.2675C291.153 79.7248 291.69 87.6505 290.974 88.5198C290.412 89.0822 289.875 89.1589 289.721 89.4913C289.645 89.6447 289.542 89.9004 289.747 90.156C290.335 90.8975 293.275 90.2839 293.275 90.2839C293.301 90.2327 294.502 88.5453 294.323 87.5227C294.144 86.5511 294.732 80.6452 295.142 80.6452C295.499 80.6452 297.187 83.2786 297.877 83.7644C297.954 83.8155 298.005 83.8411 298.056 83.8411C298.542 83.8411 301.687 84.5314 302.377 85.2217C302.556 85.4006 302.633 85.912 302.633 86.5256C302.633 86.9346 302.607 87.4204 302.581 87.8806C302.505 88.7499 302.402 89.6703 302.3 90.2583C303.042 90.2583 303.809 90.2583 304.55 90.2583C305.164 89.1589 306.468 88.3919 307.976 88.3919C309.382 88.3919 310.635 89.0822 311.274 90.0793C312.527 90.0026 313.013 90.6162 314.086 90.514C314.112 90.156 314.956 87.4971 314.93 87.0113Z" fill="#3797DB"/>
<path d="M304.908 60.1663C304.448 59.7061 303.783 59.5272 303.118 59.6294C302.76 59.6806 302.249 59.7061 301.559 59.655C299.999 59.5016 298.388 59.6294 297.391 60.6521C296.394 61.6492 296.266 65.2541 297.391 66.9415C298.516 68.6289 301.738 69.0635 302.019 69.8305C302.3 70.5975 305.087 70.9555 305.47 70.0351C305.47 70.0351 305.777 70.2396 306.212 70.1118C307.26 69.805 307.644 68.7823 307.26 67.6829C306.902 66.5836 305.343 64.3081 305.624 62.2628C305.752 61.2657 305.368 60.601 304.908 60.1663Z" fill="#3B77BE"/>
<path d="M304.243 67.0693C304.064 67.2483 304.064 67.5551 304.218 67.7596C304.55 68.1431 305.112 68.7567 305.522 69.0124C306.135 69.3703 306.723 67.8619 306.723 67.1972C306.749 66.5324 305.343 65.97 304.243 67.0693Z" fill="#45258F"/>
<path d="M303.604 77.8585C303.578 77.5261 303.323 77.2704 302.99 77.296C301.329 77.3982 300.204 78.9067 300.408 80.543C300.408 80.6197 300.408 80.7219 300.408 80.773C300.357 81.0543 299.846 82.0258 299.334 83.0229C300.332 83.2786 301.329 83.5087 302.3 83.7644C303.016 82.5116 303.757 81.3355 303.757 81.3355L303.604 77.8585Z" fill="#3B77BE"/>
<path d="M297.954 85.554C297.954 85.554 296.829 88.9288 296.496 90.2071C297.417 90.7185 297.954 89.6958 300.025 90.2838C300.076 89.8748 300.817 87.3692 300.817 86.7556C300.817 86.4488 301.738 85.0427 302.454 83.8155C302.505 83.7132 302.453 83.6109 302.351 83.5854C301.456 83.3297 300.306 82.8695 299.411 82.6138C299.309 82.5883 299.181 82.6394 299.13 82.7417C298.516 83.9433 297.954 85.554 297.954 85.554Z" fill="#3B77BE"/>
<path d="M295.678 89.8748C295.908 89.389 296.548 88.8266 297.519 88.8266C298.491 88.8266 300.025 90.2583 300.025 90.2583C300.025 90.2583 299.565 90.6929 298.312 90.6929C297.059 90.7185 295.244 90.8208 295.678 89.8748Z" fill="#3B77BE"/>
<path d="M301.354 89.6958C301.584 89.2101 302.223 88.6476 303.195 88.6476C303.553 88.6476 304.013 88.8521 304.422 89.1078C305.087 89.5169 304.806 90.5395 304.039 90.5395H304.013C302.735 90.514 300.92 90.6162 301.354 89.6958Z" fill="#3B77BE"/>
<path d="M310.43 89.6958C310.712 89.2101 311.479 88.6476 312.655 88.6476C313.089 88.6476 313.626 88.8521 314.112 89.1078C314.904 89.5169 314.572 90.5395 313.652 90.5395C313.626 90.5395 313.626 90.5395 313.601 90.5395C312.092 90.514 309.893 90.6162 310.43 89.6958Z" fill="#3B77BE"/>
<path d="M300.715 60.9078C300.255 60.4476 300.536 59.9107 300.792 59.6039C299.488 59.5783 298.235 59.8084 297.391 60.6521C296.394 61.6492 296.266 65.2541 297.391 66.9415C298.414 68.45 301.099 68.9613 301.84 69.6005C302.607 68.2966 301.431 67.1972 301.15 66.558C300.868 65.9444 302.53 64.3849 302.735 63.1577C302.939 61.9049 301.405 61.5981 300.715 60.9078Z" fill="#45258F"/>
<path d="M298.516 59.9107C298.516 59.9107 297.519 60.2686 296.241 59.8084C294.988 59.3482 293.71 61.6236 293.71 61.6236C293.71 61.6236 294.886 64.1547 295.806 64.7683C296.778 65.3819 298.516 59.9107 298.516 59.9107Z" fill="#3B77BE"/>
<path d="M314.572 81.4633C314.572 80.9009 312.859 79.2902 312.015 79.5458C311.223 79.8015 307.95 81.8468 307.95 81.8468L293.556 78.472C293.556 78.472 289.926 70.1885 289.568 63.0554C286.551 63.4644 284.506 64.2059 281.898 65.6632C283.151 72.4639 286.219 83.5087 289.593 85.5796C291.025 86.4488 308.027 84.5313 308.027 84.5313C308.027 84.5313 311.555 85.0171 312.45 84.787C316.055 83.7899 314.572 82.5883 314.572 81.4633Z" fill="#EFAC7F"/>
<path d="M289.67 55.4365C289.235 53.2889 288.699 51.1413 286.372 50.451C284.94 50.0163 283.304 50.4254 282.154 51.3714C280.773 52.4963 280.389 54.286 280.415 55.9989C280.441 59.8595 280.696 63.8735 281.387 67.6829C283.994 66.2256 287.804 66.4046 290.795 65.9955C291.102 62.544 290.258 58.2488 289.67 55.4365Z" fill="#45258F"/>
<path d="M172.907 43.3435C171.373 51.4481 166.516 68.4499 158.59 68.1942C158.206 57.0983 157.67 47.562 156.903 44.5451C156.724 43.9315 156.519 43.3179 156.263 42.7299C161.198 43.1645 164.163 35.6223 165.314 30.33C164.291 33.7048 162.016 39.0994 158.999 40.8891C157.286 41.9117 156.033 41.4004 155.573 41.247C152.71 35.9036 147.289 32.3242 144.682 29.154C142.611 26.5973 143.94 16.4218 144.452 13.2004C143.736 16.9331 142.943 22.4299 143.276 26.2649C143.685 30.5857 145.909 30.8414 150.997 36.645C155.087 41.2214 156.493 43.6758 156.647 61.189C156.34 61.2657 155.931 61.3168 155.522 61.3424C151.329 61.4191 147.494 57.354 145.372 53.8002C147.059 57.0216 150.025 60.6777 153.528 61.8026C154.167 62.0071 154.832 62.1094 155.522 62.1349C155.88 62.1349 156.289 62.1094 156.647 62.0583C156.749 63.5923 157.209 93.6842 156.8 113.115C158.027 113.14 157.797 112.552 159.025 112.655C158.973 107.388 159.255 87.7016 158.692 70.4185C167.922 70.0606 171.808 52.931 172.907 43.3435Z" fill="#7772D6"/>
<path d="M138.98 16.7808C140.872 18.2893 143.685 17.9058 143.685 17.9058L136.858 12.4345C136.858 12.4345 137.088 15.2724 138.98 16.7808Z" fill="#CEC004"/>
<path d="M136.858 12.4334L143.685 17.9047C143.685 17.9047 143.429 15.0923 141.563 13.5583C139.671 12.0499 136.858 12.4334 136.858 12.4334Z" fill="#F2E205"/>
<path d="M170.734 66.8904C173.163 66.7881 175.029 64.6661 175.029 64.6661L166.286 64.9984C166.26 65.024 168.305 66.9926 170.734 66.8904Z" fill="#CEC004"/>
<path d="M166.26 65.024L175.004 64.6916C175.004 64.6916 172.958 62.723 170.555 62.7997C168.152 62.902 166.26 65.024 166.26 65.024Z" fill="#F2E205"/>
<path d="M173.265 58.0951C174.927 57.0213 175.362 54.7715 175.362 54.7715L169.379 58.632C169.353 58.632 171.603 59.1689 173.265 58.0951Z" fill="#CEC004"/>
<path d="M169.354 58.6324L175.336 54.7718C175.336 54.7718 173.086 54.2349 171.45 55.3087C169.788 56.3569 169.354 58.6324 169.354 58.6324Z" fill="#F2E205"/>
<path d="M164.7 57.7631C165.391 59.6039 167.487 60.5243 167.487 60.5243L165.033 53.8514C165.033 53.8514 164.036 55.9223 164.7 57.7631Z" fill="#CEC004"/>
<path d="M165.033 53.8513L167.487 60.5242C167.487 60.5242 168.51 58.4533 167.82 56.6125C167.155 54.7717 165.033 53.8513 165.033 53.8513Z" fill="#F2E205"/>
<path d="M145.321 21.8419C143.838 22.8646 143.506 24.9611 143.506 24.9611L148.875 21.2283C148.875 21.2283 146.804 20.8193 145.321 21.8419Z" fill="#CEC004"/>
<path d="M148.875 21.229L143.531 24.9618C143.531 24.9618 145.602 25.3708 147.085 24.3482C148.543 23.3255 148.875 21.229 148.875 21.229Z" fill="#F2E205"/>
<path d="M165.749 36.7728C163.959 36.645 162.374 38.0512 162.374 38.0512L168.868 38.5625C168.893 38.5625 167.538 36.9262 165.749 36.7728Z" fill="#CEC004"/>
<path d="M168.893 38.5625L162.399 38.0512C162.399 38.0512 163.729 39.6875 165.519 39.8153C167.308 39.9687 168.893 38.5625 168.893 38.5625Z" fill="#F2E205"/>
<path d="M146.548 57.2262C144.758 57.0983 143.173 58.5045 143.173 58.5045L149.667 59.0158C149.693 59.0158 148.338 57.3796 146.548 57.2262Z" fill="#CEC004"/>
<path d="M149.693 59.0158L143.199 58.5045C143.199 58.5045 144.528 60.1408 146.318 60.2686C148.108 60.422 149.693 59.0158 149.693 59.0158Z" fill="#F2E205"/>
<path d="M149.923 55.4109C149.258 53.7235 147.315 52.931 147.315 52.931L149.693 59.0158C149.693 59.0158 150.588 57.0983 149.923 55.4109Z" fill="#CEC004"/>
<path d="M149.693 59.0158L147.315 52.931C147.315 52.931 146.42 54.8485 147.085 56.5103C147.724 58.1977 149.693 59.0158 149.693 59.0158Z" fill="#F2E205"/>
<path d="M162.757 34.4718C162.347 33.398 161.12 32.8611 161.12 32.8611L162.578 36.7728C162.578 36.7728 163.166 35.5456 162.757 34.4718Z" fill="#CEC004"/>
<path d="M162.578 36.7728L161.121 32.8611C161.121 32.8611 160.533 34.0628 160.942 35.1621C161.326 36.2359 162.578 36.7728 162.578 36.7728Z" fill="#F2E205"/>
<path d="M141.179 25.7792C139.492 25.14 137.6 26.0348 137.6 26.0348L143.685 28.3614C143.685 28.3614 142.866 26.4183 141.179 25.7792Z" fill="#CEC004"/>
<path d="M143.685 28.3614L137.6 26.0348C137.6 26.0348 138.418 27.9779 140.105 28.6171C141.767 29.2562 143.685 28.3614 143.685 28.3614Z" fill="#F2E205"/>
<path d="M162.629 112.706H163.575V75.4296C163.575 75.1739 163.371 74.9438 163.09 74.9438C162.834 74.9438 162.604 75.1484 162.604 75.4296V112.706H162.629Z" fill="#CEC004"/>
<path d="M151.559 114.061C151.559 114.061 155.931 108.794 159.459 110.303C162.987 111.811 163.55 109.101 165.391 109.996C167.232 110.891 169.532 113.14 169.532 113.14L151.559 114.061Z" fill="#3B77BE"/>
<path d="M159.996 85.9631C158.999 85.9631 157.823 85.733 156.57 85.0683C156.468 85.0171 156.417 84.8637 156.468 84.7615C156.519 84.6592 156.672 84.6081 156.775 84.6592C160.559 86.6534 163.294 84.5314 163.396 84.4291C163.499 84.3524 163.652 84.378 163.729 84.4547C163.806 84.5569 163.78 84.7103 163.703 84.787C163.703 84.8126 162.246 85.9631 159.996 85.9631Z" fill="#3797DB"/>
<path d="M156.851 85.1194L156.442 84.8893C156.136 84.7103 153.425 83.0741 153.323 81.8213C153.298 81.5145 153.425 81.2588 153.681 81.0543C154.141 80.6964 154.576 80.5941 154.985 80.7475C156.289 81.2588 156.749 84.3013 156.8 84.6592L156.851 85.1194ZM154.576 81.131C154.397 81.131 154.192 81.2333 153.962 81.4122C153.835 81.5145 153.783 81.6423 153.783 81.7957C153.835 82.5372 155.317 83.6365 156.238 84.2246C156.033 83.1763 155.548 81.4889 154.806 81.1821C154.729 81.1566 154.653 81.131 154.576 81.131Z" fill="#3797DB"/>
<path d="M153.937 87.9061C153.783 87.9061 153.553 87.855 153.374 87.5482C153.221 87.3181 153.195 87.0624 153.298 86.8068C153.656 85.8097 155.829 85.0427 156.084 84.966L156.647 84.787L156.366 85.2984C156.11 85.733 154.883 87.9061 153.937 87.9061C153.937 87.9061 153.962 87.9061 153.937 87.9061ZM155.624 85.6563C154.908 85.9631 153.937 86.4744 153.732 86.9858C153.681 87.1136 153.707 87.2158 153.758 87.3437C153.835 87.4715 153.886 87.4715 153.937 87.4715C154.346 87.4459 155.062 86.5255 155.624 85.6563Z" fill="#3797DB"/>
<path d="M157.056 84.787C157.056 85.0171 156.877 85.1705 156.672 85.1705C156.442 85.1705 156.289 84.9915 156.289 84.787C156.289 84.5569 156.468 84.4035 156.672 84.4035C156.877 84.4035 157.056 84.5825 157.056 84.787Z" fill="#3797DB"/>
<path d="M1.534 243.249L2.9146 244.425L4.602 243.658L6.0593 245.09L7.61886 243.709L9.33183 245.243L10.917 244.144L12.8345 245.371L12.3743 246.087L10.9425 245.192L9.28069 246.343L7.61886 244.86L6.03373 246.266L4.42303 244.681L2.78677 245.448L1.48287 244.349L0.511333 245.064L0 244.374L1.534 243.249Z" fill="#F2E205"/>
<path d="M201.261 24.0407L195.636 22.7623L194.153 26.7507L188.554 25.6769L186.509 29.333L182.214 29.0517L182.188 30.7903L187.94 31.1482L189.884 27.6967L195.713 28.8216L197.17 24.8844L202.258 26.0604L201.261 24.0407Z" fill="#F2E205"/>
<path d="M361.257 115.058L363.302 111.632L361.615 108.002C361.436 107.592 361.794 107.132 362.228 107.235L366.115 108.104L369.029 105.394C369.361 105.087 369.898 105.291 369.949 105.752L370.333 109.715L373.81 111.658C374.219 111.888 374.168 112.45 373.759 112.629L370.103 114.214L369.336 118.126C369.259 118.561 368.697 118.714 368.39 118.382L365.757 115.39L361.794 115.876C361.359 115.953 361.027 115.467 361.257 115.058Z" fill="#7772D6"/>
<path d="M26.308 210.473C26.308 210.473 26.9472 208.683 29.0436 208.069C30.9356 207.507 32.6741 208.606 33.1854 210.345C33.799 212.365 32.7508 215.279 28.788 218.731C23.5724 218.04 21.0924 216.174 20.4788 214.18C19.9675 212.441 20.8112 210.549 22.6775 209.987C24.7996 209.322 26.308 210.473 26.308 210.473Z" fill="#7772D6"/>
<path d="M10.9936 215.944C12.9111 215.688 14.4451 215.381 15.928 215.024C16.4137 214.896 17.3086 214.845 17.5387 214.333C17.6665 214.078 17.6154 213.796 17.3597 213.617C16.8995 213.311 16.2092 213.643 15.6979 213.771C14.1895 214.129 12.4765 214.487 10.7124 214.742C10.38 214.793 10.1755 215.177 10.2522 215.484C10.3289 215.816 10.6613 215.97 10.9936 215.944Z" fill="#7772D6"/>
<path d="M37.0972 213.617C37.8131 213.464 38.5289 213.285 39.2704 213.106C39.9607 212.927 40.8044 212.85 41.3924 212.467C41.827 212.186 41.7248 211.521 41.1623 211.47C40.4464 211.393 39.6794 211.7 38.9891 211.879C38.2733 212.058 37.5574 212.237 36.8415 212.416C36.0745 212.62 36.3302 213.796 37.0972 213.617Z" fill="#7772D6"/>
<path d="M19.9419 223.767C20.4788 222.029 21.4759 221.287 22.1662 220.495C22.5497 220.086 22.1406 219.472 21.6037 219.702C20.1464 220.316 19.2004 221.978 18.7658 223.409C18.5613 224.151 19.7118 224.509 19.9419 223.767Z" fill="#7772D6"/>
<path d="M29.1971 225.557C28.9925 224.816 28.9158 224.074 29.0181 223.307C29.0948 222.847 29.6573 221.441 28.7624 221.441C27.9187 221.415 27.7909 222.847 27.7398 223.435C27.6631 224.228 27.7398 225.071 27.9699 225.838C28.2 226.58 29.4016 226.324 29.1971 225.557Z" fill="#7772D6"/>
<path d="M34.2081 219.523C34.6683 219.728 35.1541 219.907 35.6143 220.111C36.0745 220.316 36.5603 220.623 37.0716 220.393C37.3528 220.265 37.404 219.932 37.3017 219.677C37.1227 219.216 36.4069 219.063 35.9722 218.884C35.512 218.705 35.0263 218.501 34.5661 218.322C34.2593 218.194 33.8758 218.449 33.7735 218.731C33.6968 219.089 33.9013 219.395 34.2081 219.523Z" fill="#7772D6"/>
<path d="M20.2743 207.226C17.8455 203.902 17.8711 203.876 17.4876 203.646C17.1041 203.416 16.5672 203.774 16.6694 204.234C16.7717 204.695 16.7717 204.618 19.3284 208.095C19.5329 208.376 19.9931 208.351 20.2232 208.121C20.53 207.89 20.4789 207.507 20.2743 207.226Z" fill="#7772D6"/>
<path d="M26.8449 205.615C26.9472 204.95 26.9472 204.26 26.896 203.595C26.8449 202.956 26.8449 202.01 26.2057 201.703C26.0523 201.652 25.8478 201.703 25.7455 201.806C25.3109 202.266 25.6177 203.084 25.6688 203.646C25.72 204.286 25.6944 204.925 25.6433 205.538C25.6177 205.871 25.9245 206.152 26.2313 206.178C26.5637 206.203 26.7938 205.947 26.8449 205.615Z" fill="#7772D6"/>
<path d="M36.279 203.953C36.3302 203.646 36.0234 203.442 35.7677 203.391C35.2308 203.314 34.6939 203.953 34.336 204.311C33.9269 204.72 33.5434 205.155 33.2111 205.615C33.0065 205.896 33.1344 206.305 33.4156 206.459C33.7224 206.663 34.0548 206.51 34.2593 206.254C35.6143 204.567 36.2023 204.72 36.279 203.953Z" fill="#7772D6"/>
<path d="M409.501 161.103C408.887 165.833 413.822 169.592 418.219 169.31C423.077 168.978 427.193 165.015 427.884 160.234C428.651 155.07 425.557 150.954 420.75 150.57C416.072 150.212 413.106 154.354 414.435 158.547C415.407 161.564 418.143 162.663 419.523 161.845C420.597 161.206 420.546 159.569 419.242 159.288C418.731 159.16 418.168 159.467 417.913 159.876C416.762 159.416 415.688 157.345 416.43 155.095C417.376 152.232 421.006 152.053 423.256 153.408C426.119 155.121 426.58 158.777 425.531 161.692C424.432 164.76 421.415 167.163 418.143 167.418C414.435 167.674 411.163 164.836 410.856 161.129C410.779 160.234 409.603 160.26 409.501 161.103Z" fill="#7772D6"/>
<path d="M29.0437 263.191C28.7369 265.62 31.268 267.537 33.5179 267.384C35.9978 267.205 38.1199 265.185 38.4778 262.731C38.8613 260.098 37.2762 257.976 34.8218 257.771C32.4185 257.592 30.9101 259.714 31.6004 261.862C32.0861 263.396 33.4923 263.984 34.2082 263.549C34.7706 263.217 34.7195 262.373 34.0548 262.245C33.7991 262.194 33.5179 262.347 33.3645 262.552C32.7764 262.322 32.214 261.248 32.5975 260.098C33.0832 258.64 34.924 258.538 36.1001 259.228C37.5574 260.098 37.7875 261.989 37.2506 263.472C36.6881 265.032 35.1541 266.285 33.4667 266.387C31.5748 266.515 29.8874 265.057 29.734 263.166C29.6829 262.731 29.0948 262.756 29.0437 263.191Z" fill="#F2E205"/>
<path d="M40.651 158.087L40.6255 153.536L36.8672 150.979C36.4325 150.698 36.5348 150.033 37.0206 149.88L41.3413 148.448L42.5941 144.076C42.7475 143.59 43.3867 143.462 43.6935 143.872L46.4035 147.528L50.9544 147.374C51.4657 147.349 51.7725 147.937 51.4913 148.371L48.8579 152.078L50.4175 156.348C50.5965 156.834 50.1363 157.32 49.6505 157.166L45.3297 155.786L41.7504 158.572C41.2391 158.879 40.651 158.598 40.651 158.087Z" fill="#3797DB"/>
<path d="M369.924 214.205C369.77 212.109 371.356 210.294 373.452 210.166C375.549 210.012 377.364 211.598 377.492 213.694C377.645 215.791 376.06 217.606 373.963 217.734C371.893 217.861 370.077 216.302 369.924 214.205Z" fill="#62BDF3"/>
<path d="M376.367 224.918C376.137 223.818 376.009 222.642 375.625 221.569C375.293 220.648 373.887 220.929 373.938 221.927C374.015 223.128 374.398 224.355 374.654 225.531C374.756 226.017 375.395 226.222 375.804 226.094C376.316 225.889 376.469 225.404 376.367 224.918Z" fill="#62BDF3"/>
<path d="M382.861 220.214C381.608 219.472 380.508 218.552 379.332 217.682C378.438 216.992 377.44 218.168 378.182 218.986C379.256 220.162 380.662 221.057 382.017 221.875C382.452 222.131 383.04 221.875 383.244 221.466C383.525 220.981 383.295 220.469 382.861 220.214Z" fill="#62BDF3"/>
<path d="M380.483 213.413C380.202 213.643 380.151 213.975 380.33 214.282C380.764 215.049 381.838 215.024 382.605 214.998C383.398 214.972 384.216 214.819 384.957 214.538C386.082 214.154 385.468 212.416 384.344 212.799C382.145 213.566 381.301 212.748 380.483 213.413Z" fill="#62BDF3"/>
<path d="M379.281 206.05C378.182 207.66 377.262 208.223 377.415 209.092C377.492 209.603 377.901 209.859 378.412 209.757C379 209.629 379.332 208.99 379.69 208.555C380.023 208.121 380.355 207.711 380.662 207.251C380.943 206.842 380.969 206.305 380.56 205.947C380.227 205.666 379.563 205.641 379.281 206.05Z" fill="#62BDF3"/>
<path d="M374.961 205.768C374.603 204.797 374.526 204.439 374.066 203.979C373.657 203.595 372.839 203.825 372.762 204.413C372.685 205.104 372.839 205.334 373.222 206.382C373.401 206.842 373.912 207.098 374.398 206.945C374.884 206.766 375.14 206.229 374.961 205.768Z" fill="#62BDF3"/>
<path d="M370.333 208.121C368.748 206.919 368.415 206.561 367.802 206.638C367.444 206.689 367.035 207.021 367.112 207.43C367.265 208.197 367.7 208.402 369.157 209.476C369.54 209.757 370.077 209.782 370.435 209.399C370.716 209.041 370.716 208.427 370.333 208.121Z" fill="#62BDF3"/>
<path d="M363.916 213.669C363.277 214.001 363.532 215.075 364.223 215.177C364.862 215.254 365.117 215.151 368.288 214.589C368.773 214.512 369.182 214.154 369.131 213.617C369.106 213.157 368.646 212.671 368.16 212.774C364.887 213.336 364.555 213.336 363.916 213.669Z" fill="#62BDF3"/>
<path d="M368.876 218.859C367.137 220.546 366.882 220.239 366.217 221.262C365.91 221.722 366.421 222.489 366.958 222.387C367.649 222.259 367.853 222.131 368.748 221.415C369.285 221.006 369.796 220.546 370.282 220.086C370.64 219.728 370.538 219.089 370.18 218.782C369.771 218.398 369.234 218.501 368.876 218.859Z" fill="#62BDF3"/>
<path d="M72.2003 366.404H75.9074V169.234C75.9074 168.211 75.0637 167.367 74.0411 167.367C73.0184 167.367 72.1747 168.211 72.1747 169.234V366.404H72.2003Z" fill="#3797DB"/>
<path d="M97.2811 366.404H100.988V165.91C100.988 164.887 100.145 164.044 99.1219 164.044C98.0993 164.044 97.2556 164.887 97.2556 165.91V366.404H97.2811Z" fill="#3797DB"/>
<path d="M100.375 188.767H74.8336V190.991H100.375V188.767Z" fill="#3797DB"/>
<path d="M100.375 218.577H74.8336V220.802H100.375V218.577Z" fill="#3797DB"/>
<path d="M100.375 248.388H74.8336V250.612H100.375V248.388Z" fill="#3797DB"/>
<path d="M100.375 278.199H74.8336V280.423H100.375V278.199Z" fill="#3797DB"/>
<path d="M81.9667 297.118H65.8341C64.5046 297.118 63.4308 298.192 63.4308 299.521V308.572H66.1153V299.982H81.9411V297.118H81.9667Z" fill="#13375B"/>
<path d="M85.0347 291.008L80.0492 285.741C80.0492 285.741 74.7058 288.681 68.4675 291.493C66.7545 288.502 63.9678 278.685 63.8144 278.224C63.661 277.764 67.0869 271.858 66.3199 271.705C65.5529 271.551 64.5558 274.85 63.7377 274.517C62.9195 274.185 60.8486 266.54 60.3629 266.949C59.4425 267.742 61.4622 271.705 60.9765 271.986C60.4907 272.267 59.2635 267.589 58.3431 267.793C57.4227 267.998 59.9027 272.063 59.647 272.472C59.3658 272.855 56.758 269.046 56.2211 269.915C55.9398 270.401 58.6243 273.239 58.0619 273.571C57.4994 273.878 55.0706 272.088 54.7893 272.676C54.5081 273.264 57.0648 273.852 57.7806 275.335C58.4965 276.818 59.7748 277.381 60.2095 280.167C60.6441 282.954 61.8202 297.808 64.837 299.01C67.4704 300.033 85.0347 291.008 85.0347 291.008Z" fill="#EFAC7F"/>
<path d="M131.131 359.526C131.515 356.714 131.489 351.549 131.285 346.078C133.739 345.95 135.81 345.797 138.239 345.644C137.216 352.623 136.526 359.808 136.526 359.808L136.705 361.188L136.807 365.279L122.976 365.355C122.976 365.355 125.89 364.052 129.981 361.495C130.262 361.316 130.952 360.728 131.131 359.526Z" fill="#EFAC7F"/>
<path d="M137.191 366.148L122.592 366.327C122.055 366.276 121.927 365.841 122.106 365.586C122.49 365.049 124.152 364.64 126.018 363.77C129.316 364.103 136.168 361.878 136.705 361.111C137.012 362.62 137.472 366.071 137.191 366.148Z" fill="#45258F"/>
<path d="M155.931 356.637C154.781 354.055 152.045 349.658 148.977 345.132C150.997 343.726 152.991 342.32 154.985 340.888C157.797 347.357 160.686 354.004 160.686 354.004L161.556 355.078L163.78 358.504L152.07 365.892C152.07 365.892 153.86 363.259 155.982 358.938C156.136 358.631 156.417 357.737 155.931 356.637Z" fill="#EFAC7F"/>
<path d="M164.393 359.373L152.249 366.915C151.764 367.145 151.431 366.864 151.457 366.532C151.482 365.867 152.71 364.665 153.834 362.927C156.8 361.495 161.428 355.921 161.479 355.001C162.527 356.126 164.598 359.168 164.393 359.373Z" fill="#45258F"/>
<path d="M150.23 242.661C151.303 237.394 147.929 232.153 143.148 230.185C143.173 227.193 142.202 223.384 140.156 221.313C136.117 217.248 128.396 215.842 125.43 221.006C121.493 223.23 118.399 228.037 119.575 232.434C115.766 236.372 117.223 243.505 122.771 246.88C122.694 251.303 125.021 255.7 128.881 257.592C129.802 258.052 131.259 258.691 131.438 258.87C131.208 258.64 134.302 267.307 143.966 263.345C153.835 259.305 156.647 247.928 150.23 242.661Z" fill="#5E2E0D"/>
<path d="M130.876 355.563C132.077 348.916 127.91 332.426 125.379 325.19C122.745 317.648 121.058 285.766 121.058 285.766L124.049 282.264L136.27 281.522C136.27 281.522 131.08 297.502 131.08 302.973C131.08 308.47 133.611 322.634 136.577 329.997C139.313 336.797 138.188 351.064 137.344 355.742C135.12 356.126 133.049 355.998 130.876 355.563Z" fill="#CEC004"/>
<path d="M139.364 283.005C139.926 283.568 143.199 287.454 143.199 290.164C143.199 292.874 137.012 317.341 138.495 318.824C139.977 320.307 145.474 324.014 148.977 329.179C151.943 333.525 158.718 346.129 159.996 349.121C157.439 350.885 155.215 351.703 152.658 352.572C152.249 350.348 132.231 328.284 129.955 323.682C127.68 319.08 126.427 297.987 125.277 295.175C124.126 292.363 121.033 285.255 121.033 285.255L139.364 283.005Z" fill="#F2E205"/>
<path d="M121.518 264.981C121.518 264.981 113.976 273.597 105.616 276.818C104.312 277.329 103.187 278.327 103.187 278.327C103.187 279.196 104.747 278.557 104.747 278.557C104.747 278.557 104.21 279.4 104.491 280.449C104.772 281.497 106.587 280.807 107.584 280.807C108.045 280.807 110.371 278.199 113.516 276.665C117.223 274.85 121.621 273.085 122.157 272.549C123.18 271.577 121.825 264.674 121.518 264.981Z" fill="#EFAC7F"/>
<path d="M136.884 240.744C136.884 240.744 129.291 239.977 125.328 242.508C121.365 245.039 118.834 254.038 118.834 257.873C118.834 261.708 121.697 281.931 120.598 285.766C120.598 285.766 133.151 285.23 137.446 285.23C141.742 285.23 142.611 283.593 142.611 283.593C142.611 283.593 133.688 274.798 133.688 270.963C133.688 267.103 136.884 240.744 136.884 240.744Z" fill="#45258F"/>
<path d="M33.211 344.289V357.455H34.6427V345.49H44.0768V349.607C40.4208 349.99 37.5829 353.365 37.5829 357.481C37.5829 361.853 40.8043 365.381 44.7927 365.381C48.7811 365.381 52.0025 361.853 52.0025 357.481C52.0025 353.39 49.139 350.016 45.5086 349.607V345.49H47.4772V343.931H45.5086V339.201H47.4772V337.641H45.5086V332.375H71.3309V330.022H57.0647V316.626C57.0647 313.046 60.3628 309.032 64.7603 309.032H77.0322V306.68H64.7603C59.5191 306.68 54.9171 311.308 54.9171 316.6V329.997H45.5086V322.48H44.0768V337.616H39.2959C35.9466 337.641 33.211 340.633 33.211 344.289ZM44.0768 343.931H34.6427C34.8217 341.297 36.8415 339.201 39.2959 339.201H44.0768V343.931V343.931Z" fill="#45258F"/>
<path d="M38.8101 346.359L39.0914 351.447C39.1936 352.086 39.6027 353.672 39.6027 354.26C39.6027 356.458 29.8107 352.393 32.0094 351.422C32.2139 351.345 33.3389 350.118 33.6201 349.427C34.1314 348.175 34.336 345.746 34.336 345.746L38.8101 346.359Z" fill="#F48C7F"/>
<path d="M32.0349 351.422C32.0349 351.422 34.3359 352.086 35.512 352.265C36.6881 352.444 38.2476 351.013 39.0658 351.396C39.9862 351.805 40.0373 355.691 40.0373 355.691C40.0373 355.691 27.7142 356.1 24.1604 355.563C22.7287 355.359 27.3307 352.981 32.0349 351.422Z" fill="#466EB6"/>
<path d="M87.8469 335.519H90.557V283.977C90.557 282.238 92.27 280.832 94.3409 280.832H118.68C119.319 280.832 119.856 280.321 119.856 279.707C119.856 279.094 119.319 278.582 118.68 278.582H94.3409C90.7615 278.582 87.8469 281.011 87.8469 283.977V335.519Z" fill="#45258F"/>
<path d="M75.1404 324.705C84.1654 324.705 91.4775 332.093 91.4775 341.17C91.4775 350.246 84.1654 357.634 75.1404 357.634C66.1153 357.634 58.8033 350.246 58.8033 341.17C58.8033 332.093 66.1409 324.705 75.1404 324.705Z" fill="#45258F"/>
<path d="M55.2751 341.169C55.2751 352.24 64.1723 361.239 75.1659 361.239C86.134 361.239 95.0568 352.265 95.0568 341.169C95.0568 330.099 86.1596 321.1 75.1659 321.1C64.1723 321.125 55.2751 330.099 55.2751 341.169ZM57.1415 341.169C57.1415 331.147 65.1949 323.017 75.1404 323.017C85.0858 323.017 93.1393 331.147 93.1393 341.169C93.1393 351.192 85.0858 359.322 75.1404 359.322C65.2205 359.347 57.1415 351.217 57.1415 341.169Z" fill="#45258F"/>
<path d="M88.2128 318.32H96.1896V287.358H88.2128V318.32Z" fill="#7772D6"/>
<path d="M61.9991 337.641H55.2495C51.619 337.641 48.6533 340.633 48.6533 344.314V357.481H50.1873V344.314C50.1873 341.502 52.4627 339.201 55.2495 339.201H61.9991V337.641Z" fill="#7772D6"/>
<path d="M38.1813 323.928H59.1971V320.323H38.1813V323.928Z" fill="#45258F"/>
<path d="M61.8712 343.931H49.3947V345.49H61.8712V343.931Z" fill="#7772D6"/>
<path d="M90.0202 330.022H61.2065V332.375H90.0202V330.022Z" fill="#7772D6"/>
<path d="M58.6953 323.924H96.2016V320.268H58.6953V323.924Z" fill="#45258F"/>
<path d="M95.0312 338.28H97.3577V286.738C97.3577 285 98.8151 283.593 100.605 283.593H122.49V281.344H100.605C97.5367 281.344 95.0312 283.772 95.0312 286.738V338.28Z" fill="#7772D6"/>
<path d="M52.4883 357.455C52.4883 361.827 56.3744 365.356 61.2065 365.356C66.013 365.356 69.9247 361.827 69.9247 357.455C69.9247 353.084 66.0386 349.555 61.2065 349.555C56.4 349.555 52.4883 353.109 52.4883 357.455Z" fill="#45258F"/>
<path d="M55.8886 357.455C55.8886 360.114 58.2663 362.262 61.1809 362.262C64.1211 362.262 66.4732 360.114 66.4732 357.455C66.4732 354.797 64.0955 352.649 61.1809 352.649C58.2663 352.649 55.8886 354.797 55.8886 357.455Z" fill="#7772D6"/>
<path d="M39.9606 306.68C42.4662 304.175 77.5692 305.376 77.5692 305.376C77.5692 305.376 47.8352 312.637 46.0966 313.583C44.3581 314.529 37.8897 346.462 37.8897 346.871C36.1001 346.436 35.0007 346.769 33.1855 346.385C33.4923 340.837 35.9211 310.745 39.9606 306.68Z" fill="#3B77BE"/>
<path d="M43.3865 346.513L43.6678 351.601C43.77 352.24 44.1791 353.825 44.1791 354.413C44.1791 356.612 34.3871 352.547 36.5858 351.575C36.7903 351.498 38.1454 350.322 38.1965 349.581C38.2988 348.43 38.2476 346.59 38.2476 346.59L43.3865 346.513Z" fill="#F7A491"/>
<path d="M36.6113 351.575C36.6113 351.575 38.9123 352.24 40.0884 352.419C41.2645 352.598 42.824 351.166 43.6421 351.55C44.5625 351.959 44.6137 355.845 44.6137 355.845C44.6137 355.845 32.2906 356.254 28.7368 355.742C27.3051 355.512 31.9326 353.135 36.6113 351.575Z" fill="#466EB6"/>
<path d="M83.0404 312.586C83.0404 312.586 82.7336 320.563 80.0747 320.639C77.4158 320.742 60.4139 321.125 50.8264 320.256L44.3836 348.737L36.8159 347.996C36.8159 347.996 39.0914 328.974 39.9095 321.739C40.7021 314.606 43.003 308.649 47.0426 308.495C51.0565 308.342 77.5436 304.251 77.5436 304.251L83.0404 312.586Z" fill="#3797DB"/>
<path d="M90.1735 275.412C90.1735 275.412 94.4687 276.511 93.8807 284.897C93.2927 293.283 88.6651 318.671 80.0747 320.665C71.4843 322.659 65.9108 304.584 65.9108 304.584C65.9108 304.584 71.3309 302.794 73.5808 294.408C75.1403 288.579 79.3333 275.463 80.3815 274.824C82.9893 273.239 90.1735 275.412 90.1735 275.412Z" fill="#F2E205"/>
<path d="M72.2001 331.812H74.5267V316.6C74.5267 313.021 78.106 309.007 82.887 309.007H96.2072V306.654H82.887C77.2112 306.654 72.2001 311.282 72.2001 316.574V331.812Z" fill="#7772D6"/>
<path d="M96.1817 362.262C106.532 362.262 114.922 353.792 114.922 343.343C114.922 332.894 106.532 324.423 96.1817 324.423C85.8317 324.423 77.4413 332.894 77.4413 343.343C77.4413 353.792 85.8317 362.262 96.1817 362.262Z" fill="#7772D6"/>
<path d="M73.3506 343.343C73.3506 356.075 83.5773 366.378 96.1817 366.378C108.786 366.378 119.013 356.075 119.013 343.343C119.013 330.61 108.786 320.307 96.1817 320.307C83.5773 320.307 73.3506 330.636 73.3506 343.343ZM75.5238 343.343C75.5238 331.812 84.7789 322.48 96.2072 322.48C107.636 322.48 116.891 331.812 116.891 343.343C116.891 354.873 107.636 364.205 96.2072 364.205C84.7789 364.205 75.5238 354.873 75.5238 343.343Z" fill="#7772D6"/>
<path d="M80.7139 343.343C80.7139 351.959 87.6424 358.938 96.1817 358.938C104.721 358.938 111.65 351.959 111.65 343.343C111.65 334.727 104.721 327.747 96.1817 327.747C87.6424 327.747 80.7139 334.727 80.7139 343.343Z" fill="#45258F"/>
<path d="M92.7046 343.343C92.7046 345.286 94.2642 346.845 96.1817 346.845C98.0992 346.845 99.6587 345.286 99.6587 343.343C99.6587 341.4 98.0992 339.84 96.1817 339.84C94.2642 339.84 92.7046 341.425 92.7046 343.343Z" fill="#7772D6"/>
<path d="M27.2079 359.872H50.8315V355.782H27.2079V359.872Z" fill="#45258F"/>
<path d="M37.416 359.872H50.8129V355.782H37.416V359.872Z" fill="#7772D6"/>
<path d="M61.9734 323.886H60.4139V359.884H61.9734V323.886Z" fill="#7772D6"/>
<path d="M60.2861 357.916C60.2861 358.453 60.7208 358.887 61.2321 358.887C61.7434 358.887 62.1781 358.453 62.1781 357.916C62.1781 357.379 61.7434 356.944 61.2321 356.944C60.7208 356.944 60.2861 357.404 60.2861 357.916Z" fill="#45258F"/>
<path d="M87.5912 252.939C87.5912 252.939 90.6081 250.894 91.8609 254.473C91.8609 254.447 92.9347 254.447 93.0625 254.499C93.6761 254.703 94.2897 255.342 94.8266 255.7C96.7952 256.953 97.6901 259.407 97.7923 261.657C97.9202 264.393 96.7952 266.361 95.0056 268.33C94.4687 268.918 93.9062 269.481 93.2159 269.838C92.3722 270.273 91.733 269.941 90.9405 270.12C90.2757 270.273 90.0456 270.989 89.2786 270.733C88.1793 270.375 87.0543 269.02 85.6993 269.225C84.3443 269.429 81.2251 268.202 81.2251 268.202C77.2112 266.643 79.9212 258.896 80.6882 256.135C81.4297 253.553 85.1113 252.019 87.5912 252.939Z" fill="#282828"/>
<path d="M83.9608 270.58L82.9126 273.418L82.3502 275.003C82.3502 275.003 82.299 277.841 82.9638 278.582C84.1142 279.861 88.7929 275.156 88.7929 275.156L90.2758 266.234L83.9608 270.58Z" fill="#EFAC7F"/>
<path d="M89.8156 269.097C88.0259 271.858 84.9579 273.137 82.9126 273.418L83.9608 270.554L90.3014 266.208L89.8156 269.097Z" fill="#D19369"/>
<path d="M89.0742 257.03C86.6965 255.572 83.5518 256.672 82.5802 259.254C82.1456 260.379 81.6854 261.785 81.3019 263.37C80.3815 267.18 81.5576 271.347 83.2961 271.731C85.0346 272.114 90.3781 270.708 91.7587 265.288C92.6024 261.99 91.5797 258.564 89.0742 257.03Z" fill="#EFAC7F"/>
<path d="M90.3781 265.467C90.1992 266.31 90.6082 267.129 91.2985 267.282C91.9888 267.435 92.7047 266.873 92.8837 266.029C93.0626 265.185 92.6536 264.367 91.9633 264.214C91.273 264.061 90.5571 264.623 90.3781 265.467Z" fill="#EFAC7F"/>
<path d="M84.9835 267.052C84.9835 267.052 87.2845 267.793 87.4635 268.637C87.6424 269.481 87.3612 270.682 86.2362 271.628C85.1113 272.574 82.7081 271.986 82.0689 271.475C81.4042 270.964 80.9184 268.79 81.5576 267.563C82.2479 266.336 84.9835 267.052 84.9835 267.052Z" fill="#282828"/>
<path d="M85.7505 268.816C85.7505 268.816 85.7249 269.762 85.4181 269.915C85.1113 270.069 84.7278 270.222 84.3699 270.248C83.7818 270.299 83.2705 270.069 82.9637 269.608C82.9381 269.557 82.9126 269.532 82.887 269.481C82.6569 269.02 82.6058 268.177 82.6058 268.177C82.6058 268.177 83.5773 267.947 84.1398 268.049C84.7022 268.126 85.7505 268.816 85.7505 268.816Z" fill="#EFAC7F"/>
<path d="M110.525 279.733C111.419 278.838 115.638 277.432 118.834 275.131C120.24 274.108 122.95 272.779 125.609 271.296C127.526 272.37 129.291 273.699 130.594 275.31C125.813 277.508 120.623 279.707 119.856 280.5C118.374 281.983 115.791 285.332 115.178 285.332C114.564 285.332 109.988 283.977 109.297 283.312C108.556 282.622 109.604 280.653 110.525 279.733Z" fill="#EFAC7F"/>
<path d="M125.583 271.296C128.907 269.455 132.128 267.435 132.461 265.62C133.074 262.373 130.313 248.388 131.847 245.678C133.381 242.993 136.858 240.744 136.858 240.744C137.421 240.744 139.389 241.945 139.926 244.374C140.489 246.803 139.492 268.535 138.929 270.503C138.674 271.424 134.915 275.131 130.671 277.074C129.418 275.489 127.526 272.37 125.583 271.296Z" fill="#7772D6"/>
<path d="M91.2984 300.646L78.0294 304.123C78.0294 304.123 74.1177 306.936 72.3791 307.498C70.615 308.061 68.4674 309.978 68.9021 310.592C69.3111 311.18 71.5354 309.16 71.8934 309.237C72.2513 309.288 70.5895 311.691 70.3338 313.251C70.0526 314.81 69.5157 316.344 70.4361 316.216C71.3309 316.089 71.9956 312.56 71.9956 312.56C71.9956 312.56 73.3762 309.901 73.6063 310.208C73.8364 310.515 72.6859 312.356 72.6859 312.356C72.6859 312.356 72.4047 314.324 72.3024 315.04C72.2257 315.552 72.6859 317.111 73.095 316.549C73.3251 316.216 73.2228 314.938 73.5041 314.197C74.0665 312.688 75.0125 311.487 75.0125 311.487C75.0125 311.487 74.0154 315.986 74.629 316.089C75.2681 316.191 75.9073 312.458 75.9073 312.458C75.9073 312.458 77.4413 309.339 78.106 309.083C78.7708 308.802 80.6116 307.626 82.0433 307.14C83.475 306.655 89.3298 308.265 91.9632 308.316C94.5965 308.342 98.8406 306.731 99.1985 304.66C99.3008 304.021 98.9173 303.331 98.3293 302.666C96.4885 300.723 93.804 299.982 91.2984 300.646Z" fill="#EFAC7F"/>
<path d="M90.1736 275.412C90.1736 275.412 94.1875 274.696 97.818 281.241C101.448 287.786 99.0963 304.635 99.0963 304.635L91.2729 300.646L90.1736 275.412Z" fill="#CEC004"/>
<path d="M108.07 281.062C107.61 281.062 105.13 281.216 104.747 280.832C104.363 280.449 106.025 279.452 106.204 279.63C106.383 279.809 107.073 279.426 107.303 279.656C107.533 279.886 108.249 279.63 108.454 279.835C108.633 280.014 108.53 281.062 108.07 281.062Z" fill="#EFAC7F"/>
<path d="M132.921 233.968C132.921 233.968 132.077 238.622 132.256 240.437C132.435 242.278 131.617 248.184 127.961 248.209C124.305 248.235 126.785 242.073 127.143 240.283C127.475 238.494 128.038 231.54 128.038 231.54L132.921 233.968Z" fill="#EFAC7F"/>
<path d="M127.808 234.173C127.859 232.665 128.14 231.437 128.14 231.437L132.921 233.968C132.921 233.968 132.742 234.914 132.563 236.142C130.441 236.602 128.728 235.579 127.808 234.173Z" fill="#D19369"/>
<path d="M133.023 220.469C133.023 220.469 135.069 221.211 136.193 223.435C137.318 225.659 137.676 231.923 133.177 234.326C128.651 236.73 125.686 232.307 125.967 228.318C126.248 224.355 127.501 219.165 133.023 220.469Z" fill="#EFAC7F"/>
<path d="M124.637 227.244C124.509 228.267 124.893 229.162 125.455 229.213C126.018 229.264 126.58 228.472 126.708 227.449C126.836 226.426 126.453 225.531 125.89 225.48C125.302 225.404 124.765 226.196 124.637 227.244Z" fill="#EFAC7F"/>
<path d="M135.81 228.957C135.401 229.954 135.606 231.003 136.245 231.284C136.884 231.591 137.728 231.003 138.111 230.006C138.52 229.009 138.316 227.96 137.676 227.679C137.063 227.398 136.219 227.96 135.81 228.957Z" fill="#EFAC7F"/>
<path d="M357.626 50.0675L366.447 62.1605L372.276 55.7689L357.626 50.0675Z" fill="#45258F"/>
<path d="M373.069 52.4452L372.276 55.7689L357.626 50.0675L373.069 52.4452Z" fill="#7772D6"/>
<path d="M372.276 57.0472L357.626 50.0675L371.253 62.1605L372.276 57.0472Z" fill="#7772D6"/>
<path d="M381.173 71.5435C381.071 71.5435 378.489 71.2623 375.242 69.2425C371.969 67.1972 370.742 63.6434 370.742 63.0809C370.742 62.8508 370.921 62.6974 371.126 62.6974C371.33 62.6974 371.509 62.8764 371.509 63.0809C371.535 63.4644 372.583 66.6859 375.625 68.5778C378.719 70.4953 381.199 70.7765 381.224 70.7765C381.429 70.8021 381.608 70.981 381.582 71.2111C381.582 71.4157 381.378 71.5691 381.173 71.5435ZM371.509 63.0554C371.509 63.0554 371.509 63.081 371.509 63.0554C371.509 63.081 371.509 63.0554 371.509 63.0554Z" fill="#62BDF3"/>
<path d="M397.178 75.1228C392.601 74.2024 388.255 72.515 384.19 70.1118C380.866 68.1176 378.182 65.1007 374.782 63.4389C374.577 63.3366 374.5 63.1065 374.603 62.902C374.705 62.6975 374.935 62.6208 375.139 62.723C378.668 64.4616 381.327 67.4784 384.625 69.447C388.588 71.7992 392.883 73.461 397.357 74.3558C398.993 74.6882 400.962 74.816 403.161 74.7138C403.391 74.7138 403.57 74.8672 403.57 75.0973C403.57 75.3274 403.416 75.5063 403.186 75.5063C401.192 75.583 399.095 75.5063 397.178 75.1228Z" fill="#62BDF3"/>
<path d="M203.945 213.669C203.945 213.669 194.255 196.385 191.903 192.704C189.551 189.022 183.415 174.424 183.185 173.836C182.955 173.248 187.404 166.345 186.432 166.115C185.435 165.884 184.336 169.771 183.287 169.285C182.239 168.825 179.146 159.467 178.532 159.953C177.407 160.822 180.194 165.757 179.606 166.063C178.992 166.37 177.177 160.643 176.001 160.822C174.825 161.001 178.251 166.089 177.918 166.524C177.586 166.984 174.032 162.177 173.393 163.2C173.035 163.762 176.666 167.393 175.975 167.725C175.285 168.058 172.064 165.731 171.706 166.396C171.373 167.06 174.697 168.006 175.694 169.822C176.691 171.637 178.379 172.429 179.094 175.804C179.81 179.179 180.859 191.374 184.438 197.459C188.043 203.544 195.968 217.018 195.968 217.018L203.945 213.669Z" fill="#EFAC7F"/>
<path d="M246.897 297.118C246.897 297.118 246.105 296.147 245.874 295.789C245.593 295.38 244.852 294.101 244.852 294.101C244.852 294.101 242.5 289.499 242.858 289.371C243.216 289.218 244.059 289.78 244.289 290.011C244.545 290.241 244.852 290.496 245.082 290.726C245.338 290.957 245.696 290.957 246.002 290.675C246.309 290.394 245.542 289.244 245.184 288.911C244.11 287.863 240.659 285.588 240.301 285.357C239.892 285.051 237.259 276.332 236.108 273.418C234.395 268.586 232.861 263.549 232.682 263.038L231.634 241.102L223.453 238.366C223.453 238.366 224.322 262.705 224.501 263.933C224.577 264.521 229.435 275.386 229.435 275.386C232.171 280.602 234.574 285.178 235.009 286.073C235.009 286.073 235.597 289.09 235.878 291.059C236.134 293.002 237.182 294.689 237.335 295.226C237.361 295.303 237.795 297.169 239.15 299.112C240.327 300.774 239.969 298.652 239.969 298.652C239.969 298.652 238.358 295.149 238.665 295.073C238.895 294.996 239.662 296.965 240.915 298.831C241.247 299.317 241.554 299.777 241.861 300.212C242.653 301.337 243.573 301.183 242.934 299.854C242.704 299.394 242.321 298.627 241.963 298.115C241.579 297.578 241.4 296.939 241.145 296.428C240.633 295.405 240.25 294.689 240.301 294.689C240.378 294.689 240.403 294.408 240.761 294.919C241.196 295.507 241.835 296.99 242.551 297.834C242.96 298.294 243.727 299.342 243.727 299.342C243.727 299.342 245.184 300.876 245.286 300.825C245.874 300.493 245.159 299.087 244.519 298.524C244.315 297.962 243.446 296.888 243.446 296.888C243.446 296.888 242.218 294.331 242.576 294.152C242.883 293.999 247.025 299.521 247.587 299.138C248.073 298.831 246.897 297.118 246.897 297.118Z" fill="#EFAC7F"/>
<path d="M232.248 211.7C232.452 206.919 231.736 202.189 229.614 197.741C227.773 193.906 223.222 191.732 219.055 191.732C205.863 191.707 204.175 209.143 195.789 215.867C193.233 217.913 190.344 219.6 187.94 221.799C178.967 229.98 183.006 245.116 191.239 252.3C196.94 257.285 205.939 260.098 212.97 256.211C216.652 254.192 219.439 250.817 221.433 247.11C224.245 241.869 226.06 235.809 228.08 230.21C230.177 224.253 231.966 218.066 232.248 211.7Z" fill="#282828"/>
<path d="M191.008 365.688C191.008 365.688 190.088 372.131 188.477 374.202C187.941 374.892 186.969 375.787 186.304 377.039C185.307 379.008 185.844 381.923 186.585 383.533C186.969 384.352 186.56 384.352 187.429 384.633C189.986 385.425 192.696 384.096 193.795 381.641C194.409 380.286 194.946 378.446 195.048 376.17C195.329 370.341 197.144 367.35 197.144 367.35L191.008 365.688Z" fill="#EFAC7F"/>
<path d="M218.978 368.628C218.978 368.628 219.541 375.889 219.081 378.241C218.825 379.494 217.444 382.102 218.084 383.303C218.723 384.479 219.439 384.786 219.439 384.786L235.955 385.042C236.849 385.067 236.261 384.479 235.546 383.942C234.369 383.073 233.398 382.485 229.614 380.67C229.358 380.542 228.464 379.98 228.131 379.775C227.313 379.264 226.469 378.471 225.779 377.704C224.603 376.375 224.501 370.009 224.501 370.009L218.978 368.628Z" fill="#EFAC7F"/>
<path d="M231.89 272.191C231.89 272.191 233.96 283.977 232.605 291.698C231.25 299.419 224.68 371.006 224.68 371.006L217.393 371.415C217.393 371.415 215.859 341.527 216.141 337.36C216.422 333.193 218.569 326.238 218.569 326.238L217.853 302.104L227.032 270.401L231.89 272.191Z" fill="#2D185D"/>
<path d="M210.49 269.711C210.49 269.711 204.763 278.327 203.383 285.46C202.028 292.593 204.38 314.503 201.746 323.835C200.315 328.897 194.946 336.695 194.128 343.24C193.309 349.785 190.088 366.889 190.088 366.889L197.375 368.321L214.3 325.574L227.569 286.943L230.969 267.052L210.49 269.711Z" fill="#45258F"/>
<path d="M215.118 220.699C215.118 220.699 207.525 220.214 204.533 223.486C201.542 226.759 211.206 252.607 211.743 256.748C212.28 260.916 208.956 271.96 208.956 271.96C208.956 271.96 226.802 275.54 231.89 272.165C231.89 272.165 232.426 242.278 231.89 239.286C231.353 236.321 226.802 224.228 225.702 223.051C224.603 221.901 215.118 220.699 215.118 220.699Z" fill="#F2E205"/>
<path d="M217.649 210.575C217.649 210.575 217.598 210.805 217.547 211.189C217.214 213.004 215.91 219.063 215.016 220.725C213.942 222.745 218.646 229.136 223.197 228.344C224.552 228.114 222.046 222.463 222.174 221.85C222.404 220.699 222.711 219.14 223.044 217.529C223.222 216.634 223.401 215.714 223.58 214.845C224.066 212.39 224.45 210.396 224.45 210.396L217.649 210.575Z" fill="#EFAC7F"/>
<path d="M217.547 211.189C217.623 210.805 217.649 210.575 217.649 210.575L224.45 210.396C224.45 210.396 224.066 212.39 223.58 214.845C223.401 215.714 223.222 216.609 223.043 217.504C221.995 217.35 220.896 216.839 219.797 215.893C218.595 214.845 217.802 213.592 217.342 212.237C217.419 211.853 217.496 211.47 217.547 211.189Z" fill="#D19369"/>
<path d="M222.225 195.184C222.225 195.184 219.029 194.826 217.01 197.408C215.016 199.99 212.842 207.993 217.828 212.365C222.813 216.711 227.722 211.802 228.464 206.561C229.205 201.345 229.486 195.005 222.225 195.184Z" fill="#EFAC7F"/>
<path d="M229.946 206.484C229.358 207.635 228.361 208.274 227.722 207.916C227.083 207.558 227.057 206.331 227.645 205.155C228.234 204.004 229.231 203.365 229.87 203.723C230.509 204.107 230.535 205.334 229.946 206.484Z" fill="#EFAC7F"/>
<path d="M222.583 194.34C222.583 194.34 218.314 201.959 215.246 202.317C212.178 202.675 211.794 206.714 211.794 206.714C211.794 206.714 212.894 197.383 215.91 195.593C218.927 193.778 222.583 194.34 222.583 194.34Z" fill="#282828"/>
<path d="M194.307 380.338C190.344 381.053 187.71 378.752 186.33 377.014C185.333 378.982 184.821 381.897 185.563 383.533C186.227 384.965 188.119 384.914 189.628 384.965C191.213 385.016 192.44 384.147 193.233 382.766C193.616 382.102 194 381.309 194.307 380.338Z" fill="#45258F"/>
<path d="M228.131 379.775C223.759 380.9 220.538 380.133 218.723 379.417C218.263 380.747 217.649 382.383 217.956 383.329C218.365 384.505 218.927 384.761 219.439 384.761C223.427 384.863 234.037 385.016 237.08 385.042C237.514 385.042 237.744 384.556 237.463 384.224C236.722 383.329 228.464 379.98 228.131 379.775Z" fill="#45258F"/>
<path d="M216.038 204.209C216.294 205.564 215.783 206.791 214.913 206.97C214.044 207.149 213.149 206.203 212.894 204.848C212.638 203.493 213.149 202.266 214.019 202.087C214.888 201.908 215.808 202.854 216.038 204.209Z" fill="#EFAC7F"/>
<path d="M201.261 208.069C201.261 208.069 211.973 219.574 213.558 224.202C215.143 228.83 211.999 235.477 207.652 235.758C203.306 236.039 193.642 215.356 193.642 215.356L201.261 208.069Z" fill="#F2E205"/>
<path d="M213.43 62.6718L201.337 65.3052C198.423 65.9444 195.559 64.1036 194.946 61.189L193.821 55.9989C193.182 53.0843 195.022 50.2209 197.937 49.6073L210.03 46.9739C212.945 46.3347 215.808 48.1755 216.422 51.0901L217.547 56.2802C218.186 59.1692 216.345 62.0327 213.43 62.6718Z" fill="#7772D6"/>
<path d="M195.048 58.3766L189.858 66.7625L197.809 63.3365L195.048 58.3766Z" fill="#7772D6"/>
<path d="M200.903 56.0501L202.922 55.5643C202.922 55.5643 205.045 53.0843 204.968 52.394C204.891 51.7037 204.15 50.3743 204.508 50.093C204.866 49.8374 205.658 49.505 206.4 50.272C206.936 50.8345 207.141 53.2633 207.422 53.3656C207.601 53.4423 208.752 53.1866 209.621 52.9821C210.183 52.8542 210.771 53.0332 211.129 53.4679C211.385 53.7747 211.385 54.1837 211.155 54.4905L210.797 54.9763L211.257 55.3598C211.59 55.641 211.641 56.1779 211.359 56.5103L211.053 56.8682L211.359 57.0983C211.743 57.3795 211.82 57.942 211.487 58.3255L211.232 58.6067L211.308 58.6834C211.59 59.0158 211.59 59.476 211.283 59.7828L211.002 60.064L205.633 61.3679C205.121 61.4958 204.61 61.5213 204.099 61.4191L202.13 61.5725C201.925 61.598 201.721 61.4446 201.67 61.2401L200.596 56.5103C200.545 56.3313 200.673 56.1012 200.903 56.0501Z" fill="white"/>
<path d="M251.32 1.3119C262.16 3.33166 269.933 10.3625 268.706 17.0354C268.092 20.3591 265.331 22.9669 261.368 24.5009L263.95 35.1366L256.101 25.7792C253.238 26.1371 250.093 26.0604 246.82 25.4468C235.98 23.4271 228.208 16.3962 229.435 9.72333C230.688 3.076 240.48 -0.707867 251.32 1.3119Z" fill="#62BDF3"/>
<path d="M256.28 15.9616C254.618 19.4387 250.451 20.896 246.999 19.2341C243.548 17.5723 242.065 13.4049 243.753 9.95343C245.414 6.47637 249.582 5.01907 253.033 6.6809C256.485 8.34273 257.968 12.4845 256.28 15.9616Z" fill="#3797DB"/>
<path d="M246.181 12.3311C245.287 14.1719 246.079 16.3962 247.92 17.291C249.761 18.1858 251.985 17.3933 252.88 15.5525L246.181 12.3311Z" fill="#EFEFEF"/>
<path d="M409.808 201.448L407.43 201.703L406.612 197.868L403.058 197.817L401.959 195.056L400.578 195.593L402.01 199.275L405.385 199.351L406.229 203.314L409.833 202.956L409.808 201.448Z" fill="#7772D6"/>
<path d="M396.002 140.88L390.377 138.426L389.099 142.286L387.258 141.673L389.201 135.767L394.775 138.196L396.206 133.619L401.32 135.767L403.442 131.267L405.206 132.085L402.317 138.298L397.434 136.253L396.002 140.88Z" fill="#F2E205"/>
</svg>
